<?xml version="1.0" encoding="utf-8"?>
<!-- Generator: Adobe Illustrator 24.0.1, SVG Export Plug-In . SVG Version: 6.00 Build 0)  -->
<svg version="1.1" id="图层_1" xmlns="http://www.w3.org/2000/svg" xmlns:xlink="http://www.w3.org/1999/xlink" x="0px" y="0px"
	 viewBox="0 0 841.9 1190.6" style="enable-background:new 0 0 841.9 1190.6;" xml:space="preserve">
<style type="text/css">
	.st0{fill:#040000;}
</style>
<path class="st0" d="M529.6,738.2c37.4,15.6,70,32.4,85,74c12.5-15.1,21.5-29.5,27.4-45.4c23.4-62.9,23.6-127.6,11.2-192.5
	c-6.6-34.5-16.6-68.3-25.5-102.3c-7.3-27.8-5.1-55.6-2.8-83.7c1.2-14.8,2.4-29.8,1.3-44.5c-2.3-32.4-36.6-50.9-66.8-39
	c-5.4,2.1-10.5,5.2-15.4,8.5c-9.3,6.2-17.8,13.8-27.5,19.2c-8.9,5-19,7.9-30.1,12.4c8.3,4.6,15.6,8.2,22.5,12.5
	c20.2,12.5,23.9,23.5,17.3,46.6c-3.2,10.8-5.6,21.9-7.8,33c-0.8,3.9-0.1,8.1-0.1,13.6c7.3,0,13.6,0.4,19.9-0.1
	c12.1-1,21.9,3.2,29.4,12.8c6.2,7.9,12.8,15.6,17.8,24.3c9.1,16.1,6.2,25.7-10.4,32.7c-12.9,5.4-26.5,9.9-40.1,12.5
	c-36.4,7-44.3,15.8-45.1,53.4c-1,52-1.2,104.1-3.6,156.1c-1.3,27.9-5.5,55.9-17.4,81.8c-7.7,16.8-14.9,17.3-27.5,4.4
	c-10.2-10.5-22-19.3-33.3-28.7c-3.6-3-8-5.1-11.6-8c-16.7-13.3-20.1-22-11.9-41.8c10.6-25.7,16.7-52.5,18-79.8
	c1.3-27.8-0.8-56-3.7-83.8c-1.9-18.6-9.8-24.7-28.3-25c-16.3-0.3-32.7,1.4-49,2.8c-20.3,1.8-38.1-4.9-54.4-16.3
	c-3-2.1-4.6-6.7-6-10.5c-6.6-17.2-1.1-32.9,6.5-48c4.2-8.2,10.9-11.6,20.6-9c28.9,7.7,58.4,3.4,87.5,2c18.4-0.9,29.9-14.1,30.2-33.2
	c0.3-20.9-0.5-41.9-1.2-62.8c-0.2-5.3-1.4-10.7-3.1-15.8c-4.5-13.8-8.8-16.8-23-17.1c-8.8-0.2-17.7,0.2-26.4-0.7
	c-16.2-1.7-20.8-8.1-16.5-23.8c8.1-29.8,25.8-49.7,56.2-58c61.8-16.9,124.8-26.5,188-34.6c35.5-4.5,69.1,2.1,98.5,24.1
	c25.2,18.8,40.1,44,45.2,75.9c5.3,33.3-4,65.3-5.9,98c-3.4,58.5-10.1,116.8-3.4,175.5c3.8,33.2,5.1,66.8,9.8,99.9
	c4.2,29.5,11.4,58.6,17.4,87.9c4.3,20.9-1.7,38.5-18.8,50c-27,17.9-55,34.4-82.8,51c-9.1,5.4-18.6,2.5-26.5-2.9
	c-6.7-4.6-13.4-10.3-17.7-17.1c-16.9-26.5-33.3-53.4-49.1-80.6C536.6,780.5,532.3,761.3,529.6,738.2z"/>
<path class="st0" d="M240.2,513.1c2.8,79.8-4.1,158.8-19.2,237.1c-3.8,19.9-7.4,39.9-12.1,59.6c-2.2,9.1-6.1,18.1-10.4,26.4
	c-5.3,10.2-13.1,11.9-21.2,4.6c-18.5-16.6-36.9-33.3-54.6-50.8c-9.6-9.4-7.8-21.8-4.7-33.8c6.1-23,13.3-45.9,18-69.2
	c10.2-50.9,19.5-102.1,20.2-154.3c0.4-31.7,0.4-63.5-0.8-95.1c-0.4-11.6-4.8-23.2-7.5-34.7c-0.7-2.8-2.5-5.4-3.2-8.3
	c-3.3-15.6,2.5-23.6,18-22c18.5,1.9,37.2,2.6,55.1,9.7c16.1,6.3,23.4,16.7,23,33.7c-0.3,16.2-0.4,32.3-0.5,48.5
	C240.2,480.8,240.2,496.9,240.2,513.1z"/>
<path class="st0" d="M273.8,352.2c-29.4-4.3-59.4-5.1-87.3-17.6c-37.9-17-50.4-45.7-50.4-84.4c0-15.6,6-31.2,9.7-49.2
	c8.1,3.2,12.5,4.6,16.6,6.7c22.6,11.2,46.7,15.3,71.4,16.4c20.1,0.9,37.2,7.4,52.1,22.1c17.6,17.5,21.3,37.7,16.5,60.7
	c-2.3,11-10.1,34.1-13,45.4"/>
<path class="st0" d="M249.3,727.6C245,652.7,302,576,380.5,577.2c0.5,9.6,1.5,19.5,1.5,29.3c0,23-3.7,44.9-16.5,64.8
	c-14,21.6-34.3,34.4-57.1,42.5C289.9,720.4,270,722.9,249.3,727.6z"/>
<path class="st0" d="M516.6,568.9c58.9,13.1,90,42.7,94.2,88.6c2.2,23.6,4.8,47.2,7.3,71c-19.7,4-50.8-11.9-81.6-45.4
	c-28.2-30.7-34.6-68.7-32.1-112.8c42,24.4,58,65.6,79.8,102.1C573.3,631.8,551.3,598.6,516.6,568.9z"/>
<path class="st0" d="M563.3,349.2c-2.9-0.5-3.5-4.1-3.2-5.9c0.7-3.7,0.7-8.7,3.9-10.7c2-1.3,4.5-0.5,5.3,2.1
	c1.1,3.6,0.3,5.8-0.2,9.5C568.9,346.2,567,349.8,563.3,349.2z"/>
</svg>
