<?xml version="1.0" encoding="utf-8"?>
<!-- Generator: Adobe Illustrator 24.0.1, SVG Export Plug-In . SVG Version: 6.00 Build 0)  -->
<svg version="1.1" id="图层_1" xmlns="http://www.w3.org/2000/svg" xmlns:xlink="http://www.w3.org/1999/xlink" x="0px" y="0px"
	 viewBox="0 0 1190.6 841.9" style="enable-background:new 0 0 1190.6 841.9;" xml:space="preserve">
<style type="text/css">
	.st0{fill:#040000;}
</style>
<g>
	<path class="st0" d="M390,464.4c9.8,4.1,18.4,8.4,22.3,19.2c3.3-3.9,5.6-7.6,7.2-11.8c6.1-16.4,6.2-33.2,3-50.1
		c-1.8-9-4.3-17.8-6.7-26.7c-1.9-7.2-1.3-14.5-0.8-21.8c0.3-3.9,0.7-7.7,0.3-11.6c-0.6-8.4-9.6-13.3-17.6-10.2
		c-1.4,0.6-2.8,1.3-4.1,2.2c-2.4,1.7-4.6,3.5-7.2,5c-2.3,1.3-5,2.1-8,3.2c2.2,1.2,4.1,2.1,5.9,3.2c5.3,3.2,6.3,6.1,4.5,12.1
		c-0.9,2.9-1.4,5.8-2.1,8.6c-0.2,1,0,2.1,0,3.5c1.9,0,3.5,0.1,5.2,0c3.2-0.2,5.8,0.9,7.7,3.3c1.7,2.1,3.3,4.1,4.6,6.3
		c2.4,4.2,1.7,6.7-2.8,8.5c-3.4,1.4-7,2.5-10.5,3.2c-9.5,1.8-11.6,4.1-11.8,13.9c-0.2,13.5-0.3,27.1-1,40.6
		c-0.3,7.3-1.4,14.5-4.5,21.2c-2,4.4-3.9,4.5-7.2,1.1c-2.7-2.8-5.8-5-8.7-7.5c-1-0.8-2.1-1.3-3.1-2.1c-4.4-3.4-5.3-5.8-3.1-10.8
		c2.8-6.6,4.4-13.7,4.8-20.8c0.3-7.2-0.2-14.6-1-21.8c-0.6-4.9-2.5-6.4-7.4-6.5c-4.3-0.1-8.6,0.3-12.8,0.8
		c-5.3,0.4-10.1-1.2-14.3-4.2c-0.8-0.6-1.2-1.8-1.5-2.8c-1.8-4.4-0.3-8.6,1.7-12.5c1.1-2.1,2.9-3,5.4-2.3c7.6,2,15.4,0.9,23,0.6
		c4.9-0.2,7.9-3.6,8-8.6c0.1-5.4-0.1-10.9-0.3-16.4c0-1.3-0.3-2.8-0.8-4.1c-1.2-3.5-2.3-4.3-6.1-4.4c-2.3-0.1-4.6,0.1-7-0.2
		c-4.3-0.4-5.4-2.1-4.3-6.2c2.1-7.7,6.7-12.9,14.8-15c16.3-4.4,32.8-6.9,49.4-9c9.3-1.2,18.1,0.6,25.9,6.3
		c6.6,4.9,10.5,11.5,11.9,19.8c1.4,8.6-1.1,17-1.5,25.4c-0.9,15.3-2.7,30.4-0.9,45.7c1,8.6,1.3,17.4,2.5,26c1.1,7.6,3,15.3,4.5,22.9
		c1.1,5.4-0.4,10.1-5,13c-7.1,4.6-14.5,9-21.8,13.3c-2.4,1.4-4.9,0.7-7-0.8c-1.8-1.2-3.5-2.7-4.6-4.4c-4.4-6.9-8.7-13.9-12.9-21
		C391.9,475.3,390.8,470.3,390,464.4z"/>
	<path class="st0" d="M90.8,347.9c1.3-0.3,3.1-1.4,4.5-1.7c3.6-0.7,6.7-2,9.4-5c8.5-9.2,19.9-5.4,24.5,3c1.8,3.3,3.2,7.1,4,10.7
		c2.7,12.5,1.8,24.9-0.8,37.5c1,0.6,1.8,1.3,2.8,1.5c3.9,1.1,6.5,3.6,8.5,7.2c5.8,10.2,11.8,20.1,20.5,28.2
		c7.1,6.5,14.4,12.8,22.6,17.9c2.8,1.7,5.3,3.5,8.1,5.2c8.7,5.6,18.2,9,28.4,10.1c3.1,0.3,6.3,0,9.7,0
		c-7.5,10.9-16.9,19.2-39.5,14.4c1.9,1.3,3.8,2.9,5.8,4c1.9,1.1,4,2.1,6.9,3.5c-5.5,2.2-10.6,2-15.6,1.8c-4.9-0.2-9.7-1.1-15.3-1
		c1.8,1.2,3.5,2.3,5.3,3.5c-2.2,2.5-4,1.4-5.5,0.8c-12.3-5.4-21.3-14.3-27-26.9c-5.9-13.2-10.4-26.7-14.8-40.4
		c-1.2-3.9-2.1-8.2-6.3-10.6c-0.8,0.8-1.7,1.3-2.3,2.2c-7.6,10.1-16.5,18.9-25.2,28c-4.8,5-8.5,10.8-12.9,16
		c-6.1,7.3-12.4,14.4-18.6,21.6c-4.3,5.1-10.1,5.8-16.1,5.8c-1.4,0-1.9-0.6-1.7-2.1c-3.8,0.2-7.5,0.8-11.2-1.7
		c0.7-1,1.2-1.8,2.1-3.1c-5.2,1.2-9.6,0.6-13.5-3.4c3.4-1,6.5-1.9,9.7-2.9c6.7-2.1,13.7-4.1,19.5-8.5c3.1-2.2,6.1-4.6,9-7.2
		c3.4-3,6.6-6.3,10.2-9.3c3.9-3.3,6.4-7.4,7.7-12.3c2.5-9.4,5.1-18.8,7.4-28.3c2.7-10.9,6.5-21.2,13.7-30c3.1-3.8,4.3-8.4,4.6-13.4
		c0.3-5.3-1.8-9-6.4-11.2c-2-1-4.3-1.5-6.4-2.3 M114.2,347.5c2.1,0,2-3.8,0.2-3.8C112.6,343.7,113,347.5,114.2,347.5z"/>
	<path class="st0" d="M314,405.7c0.8,20.8-1.1,41.4-5.1,61.7c-1,5.2-2,10.4-3.2,15.5c-0.6,2.3-1.5,4.6-2.8,6.9
		c-1.3,2.7-3.4,3.1-5.5,1.2c-4.9-4.3-9.7-8.6-14.4-13.2c-2.5-2.4-2.1-5.6-1.2-8.7c1.7-6,3.5-11.9,4.8-18c2.7-13.3,5.1-26.5,5.3-40.1
		c0.1-8.3,0.1-16.5-0.2-24.8c-0.1-3-1.2-6-2-9.1c-0.2-0.8-0.7-1.4-0.9-2.1c-0.9-4.1,0.7-6.1,4.8-5.8c4.9,0.4,9.7,0.7,14.5,2.5
		c4.2,1.7,6.1,4.3,6.1,8.7c-0.1,4.2-0.1,8.4-0.1,12.6C313.9,397.3,314,401.5,314,405.7z"/>
	<path class="st0" d="M322.7,363.9c-7.7-1.1-15.6-1.3-23-4.5c-10-4.4-13.3-11.9-13.3-22c0-4.1,1.5-8.2,2.5-12.8
		c2.1,0.9,3.3,1.2,4.4,1.8c6,2.9,12.3,4,18.8,4.3c5.3,0.2,9.7,1.9,13.7,5.8c4.6,4.5,5.6,9.8,4.3,15.8c-0.6,2.9-2.7,8.8-3.4,11.8"/>
	<path class="st0" d="M316.3,461.6c-1.1-19.5,13.8-39.5,34.5-39.1c0.1,2.5,0.4,5.1,0.4,7.6c0,6-1,11.7-4.3,16.9
		c-3.6,5.6-9.1,9-15,11.1C327.1,459.7,321.7,460.4,316.3,461.6z"/>
	<path class="st0" d="M386.7,420.3c15.5,3.4,23.7,11.1,24.8,23c0.6,6.2,1.2,12.3,1.9,18.5c-5.2,1-13.4-3.1-21.5-11.8
		c-7.4-8-9.1-17.9-8.4-29.3c11.1,6.4,15.3,17,21,26.5C401.5,436.7,395.7,428.1,386.7,420.3z"/>
	<path class="st0" d="M398.8,363.2c-0.8-0.1-0.9-1.1-0.9-1.5c0.2-1,0.2-2.2,1-2.8c0.6-0.3,1.2-0.1,1.4,0.6c0.2,1,0.1,1.5,0,2.4
		C400.4,362.4,399.8,363.3,398.8,363.2z"/>
</g>
<g id="e3ilbZ.tif">
	<g>
		<g>
			<path class="st0" d="M600,449.2c0.4-4,2.7-6.3,6-7.9c1.5-0.7,3.1-1.4,4.6-2c3.6-1.3,7-3.4,10-5.9c0.7-0.6,1.7-0.8,2.4-1.2
				c1.2-0.8,2.4-1.5,4.2-2.7c-1.5-0.4-2.4-0.8-3.4-1c-2-0.3-3.5-1.1-4.9-2.7c-2.2-2.8-5.3-3.2-8.6-2.4c-0.9,0.2-1.7,0.9-2.3,1.4
				c-2.2,1.7-4.5,2.9-7.3,2.8c-2.4-0.1-4.4-1.1-5.8-3.2c-2.4-4.2-5-8.3-7.3-12.5c-1.2-2.1-0.9-4.3,0.4-6.3c0.4-0.7,0.9-1.3,1.4-1.8
				c1-1,2.3-1.8,3.8-1.2c3.3,1.3,6.9,1,10.3,0.8c3.1-0.2,6.3-0.6,9.4-0.9c2.5-0.2,4.9-1,7-2.4c0.4-0.3,0.7-1.2,0.8-1.8
				c0.3-2.1,0-4.1-0.6-6.1c-0.1-0.6-0.3-1.2-0.4-1.8c-2.3-1-4.6-1-7-0.3c-2.1,0.6-4.3,1-6.5,1.2c-1.8,0.1-3.6-0.2-5.4-0.6
				c-2.1-0.4-3.5-1.9-4.6-3.6c-1.4-2.3-2.9-4.5-4.4-6.7c-2.3-3.2-2.5-5.9,0.3-9.7c1.8-2.4,4.2-3.4,6.9-4c0.3-0.1,0.7-0.1,0.9,0
				c5.2,0.9,10.4,0.4,15.7-0.1c0.9-0.1,1.7-0.2,2.4-0.4c1.4-0.3,2-0.9,1.9-2.3c-0.2-5.1-0.6-10.2-0.8-15.3c-0.1-2.7-0.3-5.4-0.7-8
				c-0.3-2.8-0.2-5.6-2-8.2c-0.8-1.2-0.6-2.1,0.6-3.1c2-1.5,3.9-3.2,6-4.5c1.8-1.2,3.8-1.5,5.9-0.4c4.4,2.3,9,4.3,13.3,6.7
				c3.1,1.7,5.4,4.1,5.1,8.1c-0.1,0.9-0.4,1.8-0.8,2.5c-0.2,0.4-0.7,0.9-0.9,1.3c-1.2,2.1-2.2,4.2-2,6.7c0.1,2.9,0,5.6,0.1,8.5
				c0,1.9,0.8,2.7,2.7,2.7c1.1,0,2.1-0.1,3.2-0.2c3.4-0.7,6.9-1.5,10.4-2.2c1.4-0.2,3-0.2,4.4-0.1c1.7,0.1,3.1,1,3.6,2.8
				c0.9,2.9,2.7,5.2,4,7.7c0.4,0.9,0.9,1.8,1,2.8c0.3,3.1-1,4.8-4.2,5.6c-2.3,0.7-4.6,1.1-7,1.3c-2.1,0.2-4.3-0.1-6.4,0.1
				c-2.8,0.3-5.6,0.8-8.4,1.5c-3.1,0.9-5.4,4.3-5.5,7.5c0,1.1-0.1,2.2,0,3.2c0.3,3-0.6,5.6-2,8.1c-0.4,0.8-0.7,1.8-1,2.7
				c0.1,0.1,0.2,0.2,0.4,0.3c2.3-1,4.8-2,7.1-3.1c1.1-0.6,2.3-1.1,3.3-1.9c1.2-0.9,2.8-1.3,4.2-1.7c3.8-0.8,7.5-1,11.2-0.1
				c1.4,0.3,2.9,0.9,3.6,2.5c0.3,0.9,1.1,1.5,1.5,2.3c1,1.9,0.9,3-0.8,4.2c-1.9,1.3-4,2.5-6.1,3.6c-1.2,0.7-2.5,0.9-3.5,2
				c-0.3,0.4-1.1,0.7-1.7,0.8c-3.8,1-6.7,3.3-9.5,5.9c-1.5,1.4-2.7,3.4-3.5,5.3c-1.2,2.4-2,5.1-3,7.4c2,2.5,2.7,2.9,5.2,1.5
				c3-1.4,6.2-1.5,9.3-2.2c0.6-0.1,1.2-0.2,1.8-0.3c4.2-0.9,9.5,1.7,11.3,6c0.9,2.2,2.4,4.1,2.9,6.5c0.2,1.4,0.8,2.7,0.4,4.2
				c-0.8,3.4-3.2,4.6-6.2,5.3c-1.7,0.4-3.3,0.6-5,1c-3.9,0.8-7.5,2.5-10.5,5.1c-3.3,2.8-5.8,6.1-5.6,10.7c0.1,3.1,1.8,5.3,4.8,5
				c4.5-0.6,9.2,0,13.7-1.2c2.2-0.6,4.5-0.7,6.9-1c1.7-0.3,3.3-0.7,5-1.1c2.2-0.7,4.5-0.6,6.5,0.3c2.1,0.9,4.2,2.2,5.5,4.1
				c1.4,2,2.9,4,3.9,6.2c1.1,2.4,1.3,5.2,0.9,7.9c-0.3,2.4-2.5,3.6-4.5,4.2c-3.1,0.7-6.2,1.5-9.5,0.7c-2.1-0.6-4.4-0.4-6.6-0.6
				c-2.4-0.1-4.8-0.3-7.2-0.4c-7.2-0.2-14.4-0.4-21.6-0.4c-2.5,0-5.2,0.4-7.9,0.7c-1,0.1-2,0.1-3,0.2c-4,0.4-8,0.4-11.8,1.5
				c-3,0.8-6.1,1.2-9,2c-3,0.9-6.1,1.5-9.2,2.1c-2.9,0.6-5.8,0.9-8.6,1.4c-2.1,0.4-4.2,0.7-6.4,0.3c-0.6-0.1-1.3-0.2-1.7-0.6
				c-1.1-1.4-2.2-2.9-3.1-4.5c-1.5-3-2.9-6.1-4.3-9.2c-0.8-1.8-1.7-3.4-2.3-5.2c-0.6-1.5,0.6-3.4,2.3-4c1.1-0.3,2.2-0.4,3.3-0.7
				c3.5-0.8,7.1-1.2,10.7-0.9c3.5,0.2,7.1,0.2,10.6,0c3.2-0.2,6.4-0.7,9.5-1.4c2.3-0.6,4.4-1.9,6.3-3.5c2.5-2.3,5.5-4.2,8.4-6.1
				c1.1-0.8,1.9-1.9,2.4-3s0.1-1.9-1.2-2c-0.3,0-0.8,0-1.1,0c-6.6,0-12.7-1.9-18.5-5.3c-2-1.2-4.3-1.8-6.5-2.7
				C601.4,449.6,600.7,449.5,600,449.2z"/>
			<path class="st0" d="M549.4,434.4c-2,5.6-3.6,10.7-5.6,15.7c-0.8,2-2,3.8-3.1,5.6c-0.2,0.4-0.6,0.9-0.8,1.4
				c-1.3,4.3-4.4,7.2-7.6,10c-1,0.9-2.1,1.8-3.2,2.5c-2.4,1.9-6.6,1.3-8.7-0.9c-1.2-1.3-2.5-2.4-3.8-3.8c-1.9-2.1-3.5-4.2-5.3-6.4
				c-0.4-0.6-0.8-1.3-1-2.1c-0.4-1.3,0-2.3,1.3-2.8c3.6-1.3,6.4-3.9,9.1-6.6c3.9-4,7-8.4,8.6-13.7c0.2-0.7,0.6-1.2,0.8-1.9
				c1.7-4.5,3.2-9.2,4.8-13.7c0.7-2,1.2-4.1,2.1-6.1c0.7-1.7,0.8-3.2,0.7-4.9c-1.1-1.1-2.5-0.9-3.8-0.7c-2.5,0.3-5.1,0.9-7.6,1.3
				c-1.9,0.3-4.4-1.1-5.2-3c-1.3-2.9-2.4-5.8-3.8-8.6c-0.6-1.2-1.2-2.3-2-3.4c-1-1.5-0.8-3.1,0.2-4.5c1.7-2.8,3.8-3.5,7-3.2
				c2,0.2,4,0,5.9-0.1c0.8,0,1.5-0.2,2.2-0.3c3.1-0.3,6.3-0.6,9.4-0.9c1.7-0.1,3.3-0.4,5-0.4c1.5,0,2.4,1.2,3.2,2.4
				c2,3,4.9,4.9,7.9,6.6c1.5,1,3.3,1.7,4.9,2.4c2.1,1.1,4.1,2.2,5.8,4.1c1.1,1.3,1.8,2.7,2.1,4.3c1,5.3,1.9,10.6,2,16
				c0.1,3.9,0.8,7.7,1.2,11.6c0.2,2,0.3,4,0.6,6c0.6,6.5,1,13,1.1,19.6c0.1,4.8-0.6,9.5-1,14.2c0,0.6-0.1,1.2-0.1,1.9
				c-0.1,6.2-0.9,12.4-2.2,18.4c-0.7,2.8-0.8,5.8-1.9,8.4c-0.4,1-0.8,2-1.2,2.9c-1.9,3.3-5.2,3.8-7.7,1c-2.4-2.8-5-5.5-7.5-8.2
				c-1.8-1.9-3.5-3.8-5.4-5.6c-2.5-2.5-3.1-5.5-2-8.8c0.7-2,1.3-4,2-6.1c1.4-5,3.1-10,4.1-14.9c0.9-4.3,1.1-8.7,0.4-13
				c-0.3-2.5-0.4-5.1-0.8-7.5C550.1,437.2,549.8,436,549.4,434.4z"/>
			<path class="st0" d="M537.8,341.7c1.1-0.4,2.2-0.9,3.3-1.4c1.5-0.8,3-1.4,4.1-3.1c2.1-3.2,7.3-4.5,10.9-3.2
				c2,0.8,4.2,1.1,5.8,2.8c1.5,1.5,2.8,3.1,3.5,5.2c1.1,2.9,1.4,5.8,1.9,8.7c0.7,5,2.3,9.6,5.9,13.4c2,2.1,3.9,4.3,5.8,6.6
				c3,3.9,4.8,8.2,5,13c0.1,1.4,0.6,2.9,0.4,4.3c-0.2,3-0.7,6-1,8.8c-0.8,6.3-0.6,12.4,2.8,18c1.5,2.8,3,5.5,4.5,8.3
				c1.3,2.5,1.9,5.1,0.8,8c-1.4,3.6-2.4,7.4-3.6,11.2c-0.3,1-0.8,1.9-1.2,2.8c-0.8,1.4-1.9,1.8-3.1,0.9c-1.9-1.3-3.6-2.8-5.6-4
				c-1.2-0.9-1.9-2-2.1-3.4c-0.8-4.3-1.4-8.6-1.5-13c0-5.8-0.2-11.5-0.6-17.4c-0.1-2.3-0.6-4.5-1.1-6.9c-0.7-2.7-2-5.1-4.1-6.7
				c-1.8-1.3-4-2.2-6.2-3c-3-1.1-5.9-2.4-8.2-4.6c-1.9-1.9-3.5-3.8-5.2-5.9c-1-1.2-1.7-2.7-1.7-4.4c0-1.3-0.6-2.7-0.9-4
				c-0.8-2.7-1-5.3-1-8c0-3.6,0-7.3,0-10.8c0-2.1-0.3-4.2-0.4-6.2c-0.1-2.5-1.8-3.5-3.9-4.2c-1.1-0.3-2.2-0.8-3.4-1.1
				C537.8,342.2,537.8,341.9,537.8,341.7z M552.8,337.4c-0.9,1.9-1.1,3.4-0.1,5.4c0.3-0.4,0.8-0.7,0.8-1
				C553.4,340.4,553.9,339,552.8,337.4z"/>
			<path class="st0" d="M648.4,387.1c0,0.3,0.1,0.7,0,0.9c-0.2,0.3-0.6,0.8-0.9,0.9c-0.3,0-1-0.2-1.1-0.6c-0.1-0.9-0.2-1.9-0.1-2.9
				c0-0.2,0.8-0.7,1-0.7c0.4,0.1,0.9,0.6,1,1C648.5,386.1,648.4,386.6,648.4,387.1L648.4,387.1z"/>
			<path class="st0" d="M615.5,428.4c-0.7,0.7-1,1.4-1.5,1.5c-0.8,0.2-1.1-0.7-1.1-1.3c0-1,0.8-2,1.3-1.8
				C614.6,427.1,614.9,427.8,615.5,428.4z"/>
		</g>
	</g>
</g>
<g id="osCi78.tif">
	<g>
		<path class="st0" d="M863.3,427.3c4.6-3.1,7.4-7.3,10.5-11.2c4.5-5.5,6.9-12.2,9-18.8c0.7-2.1,4-3.6,5.9-2.8
			c6.6,3.1,13.5,6.1,17.5,12.8c1.9,3.1,1.4,4.5-1.3,6.7c-4.3,3.5-8.3,7.3-12.4,11.1c-5.3,4.9-10.5,9.8-15.9,14.7
			c-3.8,3.3-7.7,6.4-11.4,9.7c-0.9,0.8-1.3,2.2-1.7,3.3c-0.4,1.4-0.4,3-0.7,4.4c-0.9,4.6-0.8,9.2,0.8,13.5c1.8,4.8,5.8,7,10.6,7.6
			c9,1.3,17.4-0.1,24.5-6.1c2.7-2.2,4.4-5,4.9-8.2c1.3-9.1,2.3-18.1,3.4-27.2c0.1-0.8,0.3-1.5,0.7-2.2c0.6-1.2,1.5-1.2,2.5-0.3
			c1.7,1.5,3.4,3.1,4.8,5c0.9,1.2,1.4,3,1.7,4.6c0.7,6.3,0.9,12.6,1.7,18.8c0.7,5.1,2.2,9.8,6,13.7c2.2,2.3,1.4,5.1,0,7.5
			c-4,7-9.6,11.8-17.6,13.8c-16.4,4.1-32.6,3.5-48.8-0.8c-3.6-1-7.3-2.7-10.6-4.5c-5-2.8-6.5-8-7.5-13.2c-0.3-1.3-0.7-2.8-0.7-4.2
			c0-2.2,0.3-4,2.4-5.6c4.4-3.2,8.2-7.2,10.8-12.2c-3.9,3-7.6,6.1-11.6,9c-4.2,3-8.6,5.6-12.9,8.4c-4.9,3.1-8.2,7.5-11.2,12.7
			c0.3-4.5,0.6-9.1,1-14.2c-1.1,1.8-1.9,3.3-2.8,4.8c-0.2,0-0.3,0-0.6,0.1c0.2-2.8,0-5.6,0.6-8.3c0.6-2.8,1.8-5.3,2.8-8
			c-0.2-0.1-0.3-0.2-0.6-0.3c-1.3,2-2.7,4-3.9,6c-0.2,0-0.3,0.1-0.6,0.1c0-2.3-0.4-4.8-0.1-7c1.3-7.4,4.4-13.7,11.3-18.1
			c4.4-2.9,8.4-6.7,12.2-10.6c3.2-3.2,4.3-7.6,5.1-12.1c0.3-1.8,0.2-3.6,0.4-5.4c0.4-5.2-0.8-5.4-5.2-7.1c-0.6-0.2-1.1-0.4-2-0.8
			c1.1-0.6,1.9-0.9,2.8-1.3c2-1.1,4.2-2.1,6-3.5c5.9-4.9,14.4-2.3,16.1,5.2c0.9,3.9,1,8,1.8,11.8
			C861.4,421.7,862.4,424.3,863.3,427.3z"/>
		<path class="st0" d="M782.3,449.9c-8.4,3.9-16.9,5.2-25.7,3.9c-5.8-0.9-9-5.4-11.3-10.4c-0.6-1.3-0.6-3.2,1.5-3.2
			c10.1,0,17.6-5.8,25.1-11.3c4.8-3.4,7.2-8.5,10.3-13.2c5-7.5,6.9-16,8.8-24.7c1-4.3,4.8-5.6,7.7-2.3c3.6,4,8.2,6.3,12.6,9.1
			c0.9,0.6,1.7,1.2,2.4,1.9c3.9,4,3.8,5.9,0.8,10.6c-2.8,4.3-5.5,8.7-7.4,13.6c-1.3,3.3-1.2,7.3-1.3,10.9
			c-0.2,9.2-0.1,18.4-0.1,27.5c0,9,0.1,17.9,0.2,27c0,1.5,0,3.2,0.1,4.8c0.2,2.2,0.8,4.6-1.5,6c-2.7,1.5-5.5,1.5-8.1-0.1
			c-4.5-3-9.1-6.2-13.5-9.4c-3.8-2.9-3.9-7.1-3.5-11.3c0.3-4.5,1.3-9,1.8-13.4C781.9,460.5,782,455.2,782.3,449.9z"/>
		<path class="st0" d="M845.8,333.6c3.3-3.2,6.3-6.4,9.6-9.1c4.1-3.2,11.2-1.7,14.9,3.3c3.2,4.2,6,8.7,9,13.2
			c4.6,6.6,2.4,15.8-2.7,21c-6.6,6.6-13.8,12.8-18.9,20.9c-2.5,4.1-4.9,8.4-7.3,12.5c-1.4,2.4-2.8,3-5.5,2.2c-2.3-0.7-4.8-1.3-7-2.4
			c-3.5-1.8-3.9-5.2-0.8-7.5c6.9-5.2,11.9-12.1,17.1-18.7c1-1.2,1.1-2.3,0.6-3.9c-2.2-6-1.9-12.3-1.3-18.6c0.2-3,0.2-6.1-0.6-9
			c-0.4-1.4-2.9-2.3-4.5-3.3C847.7,334,846.7,334,845.8,333.6z"/>
		<path class="st0" d="M816.5,347.4c-1.3,5-2.4,10-3.9,14.8c-0.8,2.4-0.9,4.6,0.2,6.9c2,4.3,4.1,8.6,6.1,12.8c1.1,2.3,1,4-1.3,5.2
			c-2.8,1.3-5.8,2.2-8.6,2.9c-2.2,0.6-4-0.8-4.4-3c-0.8-4-1.4-8-1.9-11.9c-0.4-4.6-2.3-8.6-5.5-12.1c-2.8-3-5.3-6.1-7.7-9.3
			c-3.3-4.3-3.2-7.3,0-11.7c0.9-1.2,1.3-2.9,2.1-4.2c1.1-2,1.9-4.3,3.5-5.8c3.8-3.5,8.3-2.5,11.3,1.7c1.5,2.2,3.5,4.2,5.6,6
			C814.2,341.7,816.1,343.8,816.5,347.4z"/>
		<path class="st0" d="M767.7,376.3c-1.5-0.1-3.2,0-4.8-0.3c-1-0.2-2.2-0.7-2.8-1.4c-1.2-1.5-2.1-3.3-3.1-5.1
			c-1.3-2.3-2.5-4.8-4.1-7c-1.3-2-1.3-3.8,0.2-5.6c0.8-0.9,1.4-2,2.3-2.8c0.7-0.6,1.7-1,2.4-1.1c7.4-0.6,14.8-0.9,22.3-1.4
			c2.2-0.1,4.2,0.1,5.8,2c3.4,4.2,7,8.2,10.2,12.6c1.2,1.8,1.5,4.2,2.1,6.4c0.1,0.3-0.8,1.2-1.2,1.2c-3.9,0.4-7.7,0.8-11.6,1
			c-5.9,0.4-11.8,0.7-17.8,1.1C767.7,376.2,767.7,376.3,767.7,376.3z"/>
		<path class="st0" d="M828.7,349.9c5.9-0.3,11.7-0.7,17.6-1.1c2.9-0.2,3.4,0.2,3.2,3.2c-0.3,4.1,0.2,8,1.5,11.8
			c1.4,4-0.9,7.2-5.1,7.5c-8.1,0.7-16.3,1.5-24.3,2.4c-1.5,0.2-2.4-0.2-3.1-1.5c-2.2-3.8-3.3-7.6-1.9-12.1c0.3-1,0.4-2.2,0.9-3.2
			c2.5-7.3,0.6-6.2,9.3-7.1C827.3,349.9,828,349.9,828.7,349.9L828.7,349.9z"/>
		<path class="st0" d="M874.4,368.8c7.3-6.7,12.6-13.7,10.4-24c6.6-0.6,13.2-1.2,19.8-1.8c3.6-0.2,5.9,2.1,7.2,4.9
			c2,4.4,2.4,8.8,0.9,13.8c-1.4,4.5-4.5,5.3-8.4,5.6c-9.2,0.8-18.5,1.5-27.6,2.2C876,369.8,875.3,369.3,874.4,368.8z"/>
	</g>
</g>
<g id="pt4BCl.tif">
	<g>
		<g>
			<path class="st0" d="M1102.9,426.9c3.1,2.7,6.3,4.3,10,5.4c9.7,2.9,19.5,5.9,29.2,9.1c6.6,2.2,12.5,6.1,17.7,10.8
				c2.1,1.9,3,4.3,3.3,7.1c1,10.4-2.5,19.2-9.4,26.9c-1.2,1.3-2.3,2.8-3.8,4.4c-0.9-1.7-1.8-3-2.4-4.4
				c-6.1-12.3-14.5-22.3-26.5-29.2c-9.3-5.4-18.4-11.3-27.4-17c-1.4-0.9-2.7-1.1-4-0.1c-0.3,0.2-0.8,0.3-1,0.6
				c-9.6,7.2-21,11.5-31.2,17.7c-6.7,4.2-13.4,8.7-18.1,15.3c-0.3,0.4-0.8,0.7-1.4,1.2c-2.2-4.8-2-9.5-1-14.3
				c1.5-7.5,6.2-12.4,13-15.4c5.3-2.3,10.7-4.4,15.9-6.9c4.6-2.3,9.1-5.1,13.9-7.7c-1.9-1.7-3.4-3-5.1-4.4c-1.2-1-2.4-2-3.5-3
				c-3.9-3.5-4.9-8.6-2.4-13.3c3.9-7.7,9.1-14.7,15.6-20.3c1.8-1.4,4.5-2.3,6.9-2.3c7.1,0.1,13.4-1.9,19.1-5.9
				c3.4-2.4,5.2-2.4,8.4,0.2c2.9,2.4,5.8,4.9,8.3,7.6c1.7,1.9,2.9,4.3,3.8,6.6c1.3,3.5,1.3,5.4-3,8c-9.4,5.5-16.7,13.4-23.4,21.7
				C1103.7,425.5,1103.4,426.2,1102.9,426.9z M1101.5,398.3c-8.7-2-18.4,7.9-18.5,17.7c1-1.3,1.7-2.5,2.5-3.4
				c2.2-2.2,4.3-4.4,6.7-6.4c0.8-0.7,2-0.7,3.1-0.9c0.1,0.3,0.3,0.7,0.4,1c-4.2,3-9.1,5.3-11.1,10.5c12.3,0.1,19.9-4.9,20.6-14.3
				c-1.5,0.1-3.2,0.2-5.1,0.3C1100.7,401.1,1101,399.7,1101.5,398.3z"/>
			<path class="st0" d="M1131.3,485.6c0.2,2.7-0.7,4.9-2.9,6.6c-2.8,2.3-5,5.1-7.5,7.6c-0.7,0.7-1.3,1.2-2.2,1.8
				c-3.8,2.2-5.3,2.1-7.5-1.7c-3.2-5.4-8-7.2-13.8-6.6c-5.2,0.4-10.5,0.9-15.6,2c-4,0.9-7.9,2.4-10.8,5.4c-1.9,1.9-3.8,1.9-5.9,0.6
				c-4.6-2.9-7-7.6-10-11.9c-0.3-0.4-0.2-1.3-0.2-2.1c1-6.3,2-12.7,3-19c0.4-2.8,1.5-5.2,4-6.9c2-1.4,3.9-3.2,5.9-4.6
				c2.4-1.7,5.3-2.7,8-1.7c4,1.4,7.4,0.9,10.9-1.1c1.1-0.6,2.7-1,3.8-0.7c2,0.4,3.2-0.2,4.6-1.4c4.9-4.3,8.4-4.1,13.6,0
				c3.3,2.5,7.1,4.4,10.7,6.6c3.2,1.9,6.6,3.5,8.6,7c0.7,1.1,1.3,2.2,1.5,3.3C1130.2,474.5,1130.8,480.1,1131.3,485.6z
				 M1110.6,475.2c0.1,0,0.1,0,0.1,0c-0.2-2.2-0.2-4.5-0.8-6.6c-0.8-3-3-4.8-5-4.5c-6.1,0.7-12.2,1.2-18.2,1.9
				c-2.2,0.2-4.4,0.2-6.5,0.7c-1,0.2-2.5,1.1-2.8,2c-1.3,4.3-2.3,8.7-3.2,13c-0.4,1.9,1,2.3,2.4,2.2c2.4-0.2,4.8-0.7,7.2-1.1
				c8.1-1.2,16.3-2.4,24.4-0.7c1.5,0.3,2.4-0.3,2.4-2C1110.6,478.5,1110.6,476.9,1110.6,475.2z"/>
			<path class="st0" d="M1079.2,331.8c3.2-3.2,6.1-6.2,9.2-8.8c2.8-2.4,9.4-2.3,11.8,0.2c6.5,6.6,12.1,14.2,14.7,23.3
				c1.8,6.2-1.9,12.8-8.4,16.4c-2.4,1.3-5.3,2.4-7.1,4.4c-9.7,10.7-19.6,21.3-28.5,32.6c-6.5,8.3-11.7,17.7-17.5,26.5
				c-0.8,1.2-1.7,2.4-2.7,3.5c-1.9,2-5.8,1.8-7.2-0.7c-2.8-4.6-5-9.5-3.4-15c0.4-1.5,1.3-2.9,2.4-4.1c8.8-10.9,18.7-21,29.7-29.7
				c5-4,9.5-8.5,14.4-12.7c2.1-1.9,3-3.8,2-6.7c-1.8-5.5-2.7-11.3-1.4-17.1c0.3-1.8,0.2-3.5,0.2-5.4c-0.1-2.9-2.1-5.1-5.5-5.9
				C1081.1,332.3,1080.3,332.1,1079.2,331.8z"/>
			<path class="st0" d="M1009,487.4c-3.6,2.7-7.4,5.3-11.1,8.1c-0.3-0.2-0.7-0.3-1-0.6c0-4.5-0.2-9.1,0.1-13.5
				c0.4-5.4,2.5-10.5,6.2-14.4c7.4-7.9,15.4-15.1,23-22.6c0.8-0.7,1.3-1.5,2.1-2.1c0.4-0.4,1.1-0.6,1.7-0.9c0.3,0.7,0.9,1.3,0.9,2
				c0,3.9-0.1,7.9-0.3,11.7c-0.3,5.6-0.7,11.3-1.2,16.8c-0.3,3.4-0.4,7.2-1.9,10.3c-2,4.3-4.9,8.3-7.5,12.3c-2.3,3.4-5.8,5.1-9.7,6
				c-2.1,0.4-2.5-0.1-2.2-2.2c0.7-3.5,1-7.1,1.5-10.6C1009.4,487.6,1009.2,487.5,1009,487.4z"/>
			<path class="st0" d="M1050.4,346.8c-0.7,2.5-1.4,5.6-2.2,8.7c-0.4,1.7-1,3.3-1.4,5c-0.9,2.8-0.2,5.3,0.9,8
				c2.2,5,4.2,10.1,6.3,15.1c1.1,2.8,0.7,4.1-2.1,5.2c-2.7,1.1-5.5,2.1-8.4,2.7c-2.8,0.6-4.3-1.1-4.6-3.9
				c-0.8-6.3-1.4-12.6-2.4-18.8c-0.2-1.7-1.1-3.3-2.1-4.6c-3.1-4-6.4-7.9-9.7-11.7s-3.3-7.9-0.2-11.8c1.1-1.5,1.8-3.4,2.3-5.3
				c1.1-3.6,3.9-6.1,7.9-6.4c3.3-0.2,5.5,1.4,7.1,4.4c0.8,1.3,2.1,2.7,3.4,3.4C1048.7,338.8,1049.8,342.3,1050.4,346.8z"/>
			<path class="st0" d="M1034,373.3c-10.8,0.8-20.8,1.5-30.7,2c-2.8,0.1-5.8-0.4-8.4-1.3c-1.3-0.4-2.5-2.1-3.1-3.4
				c-1.4-3.4-2.4-7-3.5-10.5c-1.2-3.4,1.7-8,5.3-8.1c8.2-0.3,16.4-0.8,24.5-1c0.9,0,2.1,0.8,2.7,1.4c3.3,3.8,6.9,7.5,9.7,11.7
				C1032.2,366.6,1032.8,370,1034,373.3z"/>
			<path class="st0" d="M1012.8,383.4c0.9,2,1.8,3.8,2.7,5.6c0.2,0,0.6,0,0.8-0.1c0.8-1.8,1.5-3.4,2.1-4.6
				c3.9,3.4,7.9,6.6,11.5,10.2c4.9,5,5.5,11.2,4.1,17.6c-0.8,3.4-1.9,6.7-2.8,10.2c-0.3,1.2-0.9,1.5-2,1
				c-8.3-3.5-15.3-9.1-19.9-16.6C1004.5,398.9,1004.8,390.4,1012.8,383.4z"/>
			<path class="st0" d="M1027.7,432.2c-4.6,4-9,8.3-13.8,11.6c-6.5,4.2-16.1,4-20.2-5.5c-1.9-4.3-3.1-8.6-2.8-13.4
				c0-0.7,0.2-1.4,0.4-2.4c1.3,1.7,2.4,2.9,3.4,4.1c0.3-3.8,0.6-7.3,1-10.9c0.1-0.8,0.3-1.5,0.8-2.2c0.9-1.1,2-2.1,3-3.1
				c0.7,1,1.3,1.9,2,2.9c2.5,4.3,5.8,7.9,10.6,9.7C1017.4,425.2,1023,427.4,1027.7,432.2z"/>
			<path class="st0" d="M1082.2,351.7c0.8,3.3,1.5,6.6,2.2,10c0.1,0.7,0.3,1.3,0.3,2c-0.2,1.5-4.9,5.5-6.4,5.8c-7.5,1-15,2-22.4,2.8
				c-0.9,0.1-2.3-0.6-2.8-1.3c-2.9-4.4-3.6-9.2-1.8-14.3c0.2-0.7,0.4-1.3,0.7-2c2-5.9,2-5.9,8.1-6.3c6.7-0.4,13.4-0.9,20.1-1.3
				c2.4-0.1,3,0.3,2.9,2.8c0,0.7-0.1,1.2-0.1,1.9C1082.6,351.6,1082.5,351.6,1082.2,351.7z"/>
			<path class="st0" d="M1111.2,365.1c7.3-5.6,11.2-12.4,6.9-21.9c3.4-0.4,6.4-1,9.4-1.3c2.8-0.3,5.6-0.3,8.4-0.7
				c3.4-0.3,6.2,0.7,8.4,3.2c3,3.5,4.4,7.7,5.3,12.3c0.3,1.9-0.7,3.2-2.2,4.3c-3.4,2.4-7.3,2.9-11.3,3.1c-6.2,0.3-12.3,0.7-18.5,1.1
				c-2,0.1-4,0.2-6,0.3C1111.4,365.4,1111.3,365.3,1111.2,365.1z"/>
		</g>
	</g>
</g>
<g>
	<g>
		<path class="st0" d="M870.4,350.9c0.7,0,0.7-1.1,0-1.1C869.7,349.8,869.7,350.9,870.4,350.9L870.4,350.9z"/>
	</g>
</g>
</svg>
